<svg xmlns="http://www.w3.org/2000/svg" width="384" height="212" fill="none" viewBox="0 0 384 212"><g clip-path="url(#clip0_1_488)"><path fill="#F2F2F2" d="M197.595 210.915C191.524 211.807 185.381 212.104 179.252 211.8C164.474 211.055 149.941 206.765 137.521 198.699C132.014 195.123 126.761 190.728 123.91 184.826C120.042 176.81 121.395 166.663 126.919 159.681C128.935 157.163 131.413 155.052 134.222 153.462C134.639 153.228 135.064 153.002 135.494 152.785C140.174 150.436 145.432 149.475 150.642 150.017C159.502 150.983 167.678 156.384 172.402 163.931C176.61 170.659 178.076 178.599 178.94 186.556C179.103 188.055 179.243 189.559 179.379 191.054C178.626 195.384 177.442 199.629 175.845 203.725C175.764 203.925 175.697 204.13 175.646 204.34C176.551 206.3 177.412 208.278 178.229 210.274C178.997 210.69 179.858 210.907 180.732 210.906H197.559L197.595 210.915Z"/><path fill="#fff" d="M177.881 211.299C177.769 211.349 177.649 211.376 177.527 211.378C177.405 211.381 177.283 211.36 177.17 211.315C177.056 211.271 176.952 211.204 176.865 211.119C176.777 211.034 176.707 210.932 176.659 210.82C176.587 210.649 176.519 210.477 176.447 210.305C175.795 208.725 175.112 207.159 174.397 205.609C165.244 185.6 151.593 167.968 134.503 154.081C134.405 154.013 134.327 153.919 134.278 153.81C134.228 153.701 134.209 153.581 134.222 153.463C134.247 153.326 134.302 153.198 134.384 153.086C134.466 152.974 134.572 152.882 134.694 152.817C134.816 152.752 134.952 152.715 135.09 152.71C135.229 152.704 135.367 152.73 135.494 152.785C135.562 152.816 135.626 152.855 135.684 152.903C142.996 158.846 149.703 165.494 155.71 172.75C161.718 179.999 167.008 187.813 171.506 196.08C172.732 198.338 173.896 200.628 174.999 202.949C175.216 203.409 175.433 203.875 175.646 204.34C176.551 206.3 177.412 208.278 178.229 210.274C178.243 210.305 178.257 210.341 178.27 210.373C178.312 210.459 178.335 210.552 178.337 210.647C178.34 210.742 178.322 210.836 178.285 210.924C178.249 211.012 178.193 211.09 178.124 211.155C178.054 211.22 177.971 211.269 177.881 211.299Z"/><path fill="#FF3D71" d="M117.87 151.737C127.616 151.737 135.516 143.852 135.516 134.125C135.516 124.398 127.616 116.513 117.87 116.513C108.124 116.513 100.224 124.398 100.224 134.125C100.224 143.852 108.124 151.737 117.87 151.737Z"/><path fill="#fff" d="M116.121 140.844C115.724 140.844 115.337 140.716 115.02 140.478L115 140.464L110.853 137.295C110.661 137.148 110.499 136.965 110.378 136.756C110.257 136.547 110.178 136.316 110.146 136.076C110.115 135.837 110.13 135.593 110.193 135.36C110.255 135.127 110.363 134.908 110.51 134.716C110.658 134.524 110.841 134.363 111.051 134.243C111.26 134.122 111.492 134.043 111.731 134.012C111.971 133.98 112.215 133.996 112.449 134.058C112.683 134.121 112.902 134.228 113.094 134.375L115.78 136.431L122.128 128.169C122.275 127.977 122.459 127.816 122.668 127.695C122.878 127.575 123.109 127.496 123.349 127.465C123.589 127.433 123.832 127.449 124.066 127.511C124.3 127.574 124.519 127.681 124.711 127.828L124.672 127.882L124.712 127.829C125.099 128.126 125.353 128.565 125.417 129.048C125.481 129.531 125.35 130.02 125.053 130.407L117.587 140.126C117.414 140.35 117.192 140.531 116.938 140.656C116.683 140.78 116.404 140.844 116.121 140.844Z"/><path fill="#3F3D56" d="M383.461 212H0.538655C0.396041 212 0.259412 211.943 0.158714 211.842C0.0580156 211.741 0.00146484 211.605 0.00146484 211.463C0.00146484 211.32 0.0580156 211.184 0.158714 211.083C0.259412 210.982 0.396041 210.925 0.538655 210.925H383.461C383.604 210.925 383.74 210.982 383.841 211.083C383.942 211.184 383.998 211.32 383.998 211.463C383.998 211.605 383.942 211.741 383.841 211.842C383.74 211.943 383.604 212 383.461 212Z"/><path fill="#2F2E41" d="M74.9045 61.3924C82.1364 61.3924 87.999 55.5411 87.999 48.3232C87.999 41.1052 82.1364 35.2539 74.9045 35.2539C67.6726 35.2539 61.8101 41.1052 61.8101 48.3232C61.8101 55.5411 67.6726 61.3924 74.9045 61.3924Z"/><path fill="#2F2E41" d="M64.6834 41.2768C66.7995 39.1648 67.2283 36.1687 65.6413 34.5847C64.0543 33.0008 61.0524 33.4288 58.9364 35.5407C56.8203 37.6527 56.3915 40.6488 57.9785 42.2328C59.5655 43.8167 62.5674 43.3887 64.6834 41.2768Z"/><path fill="#2F2E41" d="M88.5522 37.1263C89.4339 35.0663 87.9177 32.4452 85.1658 31.272C82.4138 30.0987 79.4682 30.8175 78.5866 32.8775C77.7049 34.9375 79.2211 37.5585 81.9731 38.7318C84.725 39.9051 87.6706 39.1863 88.5522 37.1263Z"/><path fill="#FFB8B8" d="M111.367 123.778C111.698 123.15 111.887 122.457 111.921 121.749C111.954 121.041 111.832 120.333 111.562 119.677C111.292 119.021 110.882 118.432 110.359 117.951C109.837 117.471 109.215 117.11 108.538 116.895L89.6172 76.9473L80.9624 83.0046L102.282 120.368C101.996 121.527 102.146 122.751 102.703 123.807C103.261 124.864 104.187 125.68 105.307 126.1C106.427 126.52 107.662 126.516 108.779 126.088C109.896 125.66 110.817 124.838 111.367 123.778V123.778Z"/><path fill="#CCC" d="M93.9563 83.6119L83.9076 88.0966C83.6217 88.2242 83.3116 88.2888 82.9984 88.286C82.6852 88.2832 82.3763 88.2131 82.0927 88.0804C81.8092 87.9477 81.5576 87.7556 81.3551 87.5171C81.1526 87.2786 81.004 86.9993 80.9195 86.6984L77.9562 76.1521C77.3104 74.6884 77.2725 73.0288 77.8508 71.5373C78.4291 70.0457 79.5764 68.8439 81.0411 68.1953C82.5058 67.5467 84.1685 67.5043 85.6645 68.0774C87.1605 68.6504 88.3678 69.7922 89.0217 71.2523L94.9044 80.4568C95.0728 80.7204 95.1822 81.0171 95.2253 81.3267C95.2684 81.6364 95.2442 81.9516 95.1542 82.251C95.0642 82.5504 94.9106 82.827 94.7039 83.0618C94.4972 83.2966 94.2422 83.4843 93.9563 83.6119Z"/><path fill="#FFB8B8" d="M47.5478 127.738C48.24 127.578 48.8885 127.268 49.4477 126.83C50.0069 126.392 50.4631 125.838 50.7843 125.205C51.1054 124.572 51.2836 123.877 51.3065 123.168C51.3293 122.459 51.1961 121.754 50.9162 121.102L68.8351 80.6965L58.5846 78.1196L44.1942 118.647C43.128 119.189 42.298 120.102 41.8614 121.214C41.4248 122.326 41.412 123.559 41.8254 124.679C42.2388 125.8 43.0496 126.73 44.1043 127.294C45.159 127.858 46.3842 128.016 47.5478 127.738H47.5478Z"/><path fill="#FFB8B8" d="M42.6631 200.977L47.8755 202.871L57.6765 183.706L49.9831 180.91L42.6631 200.977Z"/><path fill="#2F2E41" d="M56.1655 211.354L39.7836 205.401L42.0881 199.084L52.1407 202.737C53.8193 203.347 55.1864 204.598 55.9412 206.214C56.696 207.83 56.7767 209.679 56.1655 211.354Z"/><path fill="#2F2E41" d="M54.9924 189.948C54.6726 189.948 54.3567 189.877 54.0676 189.74L48.0772 186.908C47.5861 186.678 47.1991 186.273 46.9924 185.773C46.7857 185.272 46.7742 184.712 46.9603 184.204L63.8663 137.477C64.0063 137.09 64.2534 136.751 64.5789 136.499C64.9045 136.246 65.295 136.091 65.7053 136.051C66.1156 136.011 66.5288 136.089 66.8969 136.274C67.265 136.459 67.573 136.745 67.785 137.097L76.7269 151.972C76.9259 152.303 77.0329 152.681 77.037 153.068C77.0412 153.454 76.9422 153.835 76.7504 154.17L56.8928 188.854C56.7004 189.187 56.4234 189.463 56.0897 189.655C55.7561 189.847 55.3776 189.948 54.9924 189.948Z"/><path fill="#FFB8B8" d="M75.3197 62.5351C81.4573 62.5351 86.4328 57.5691 86.4328 51.4433C86.4328 45.3175 81.4573 40.3516 75.3197 40.3516C69.1821 40.3516 64.2065 45.3175 64.2065 51.4433C64.2065 57.5691 69.1821 62.5351 75.3197 62.5351Z"/><path fill="#CCC" d="M91.0419 101.873L71.3649 96.4724L60.8994 75.582C60.3966 74.5784 60.1593 73.4632 60.2098 72.3423C60.2603 71.2214 60.5971 70.132 61.1882 69.1775C61.7792 68.223 62.6049 67.4352 63.5868 66.8888C64.5687 66.3424 65.6743 66.0556 66.7985 66.0557H82.4537C84.0787 66.0546 85.6467 66.6532 86.8563 67.7362C91.0558 71.491 99.8787 82.316 91.127 101.684L91.0419 101.873Z"/><path fill="#CCC" d="M66.409 87.923L56.4396 83.2654C56.1559 83.1328 55.9042 82.9408 55.7016 82.7025C55.499 82.4641 55.3502 82.185 55.2654 81.884C55.1807 81.5831 55.1619 81.2675 55.2103 80.9586C55.2588 80.6498 55.3734 80.355 55.5463 80.0944L61.605 70.9618C62.2927 69.5173 63.5262 68.4039 65.035 67.8656C66.5439 67.3274 68.2051 67.4082 69.6543 68.0905C71.1035 68.7727 72.2226 70.0007 72.7662 71.5051C73.3097 73.0096 73.2334 74.6677 72.5539 76.1161L69.421 86.5765C69.3312 86.8759 69.1778 87.1526 68.9712 87.3875C68.7646 87.6225 68.5097 87.8103 68.2239 87.9381C67.9381 88.0658 67.628 88.1306 67.3148 88.128C67.0016 88.1254 66.6927 88.0555 66.409 87.923Z"/><path fill="#FFB8B8" d="M78.4711 206.213H84.0179L86.6572 184.858L78.4697 184.858L78.4711 206.213Z"/><path fill="#2F2E41" d="M94.7163 211.354L77.2823 211.355L77.282 204.632L87.9802 204.631C89.7666 204.631 91.4799 205.34 92.7432 206.6C94.0065 207.861 94.7162 209.571 94.7163 211.354Z"/><path fill="#2F2E41" d="M80.5652 198.076C80.0665 198.077 79.5827 197.906 79.1955 197.592C78.8083 197.278 78.5414 196.841 78.4397 196.353C76.8452 188.855 68.5639 150.448 62.1004 130.664C55.5242 110.536 66.7239 101.368 69.0358 99.7348C69.282 99.5612 69.4776 99.3254 69.6027 99.0517L71.2824 95.3639C71.4565 94.9832 71.7366 94.6604 72.0894 94.4341C72.4421 94.2078 72.8526 94.0874 73.2719 94.0874H73.2855C85.8771 94.1625 90.1102 98.1241 91.3456 99.824C91.5278 100.077 91.6527 100.367 91.7116 100.673C91.7705 100.979 91.7619 101.294 91.6866 101.597L83.7196 134.403C83.6702 134.607 83.6591 134.818 83.6867 135.025L91.6131 194.591C91.6512 194.877 91.6318 195.168 91.556 195.447C91.4803 195.726 91.3496 195.987 91.1718 196.215C90.9939 196.442 90.7724 196.633 90.5201 196.774C90.2679 196.916 89.9899 197.006 89.7024 197.039L80.8211 198.061C80.7362 198.071 80.6507 198.076 80.5652 198.076Z"/><path fill="#2F2E41" d="M63.6426 44.4664C66.1821 46.2134 69.1963 47.1431 72.2805 47.1308C71.1803 47.8922 69.9279 48.4065 68.6094 48.6383C72.7101 49.5162 76.9483 49.54 81.0586 48.7081C81.9723 48.5619 82.8539 48.2596 83.6647 47.8147C84.0688 47.5895 84.4209 47.2819 84.698 46.912C84.9752 46.542 85.1712 46.118 85.2734 45.6675C85.5465 44.1101 84.3307 42.6952 83.0671 41.7417C81.1326 40.304 78.902 39.3135 76.5369 38.8417C74.1717 38.37 71.731 38.4289 69.3915 39.0142C67.8638 39.4083 66.3334 40.0742 65.3412 41.2987C64.3489 42.5231 64.055 44.4109 65.0003 45.6717L63.6426 44.4664Z"/><path fill="#FF3D71" d="M267.637 92.578C270.886 92.578 273.52 89.9496 273.52 86.7072C273.52 83.4649 270.886 80.8364 267.637 80.8364C264.389 80.8364 261.755 83.4649 261.755 86.7072C261.755 89.9496 264.389 92.578 267.637 92.578Z"/><path fill="#fff" d="M267.054 88.9469C266.922 88.9471 266.793 88.9044 266.687 88.8252L266.681 88.8203L265.298 87.7639C265.234 87.7151 265.18 87.654 265.14 87.5843C265.099 87.5146 265.073 87.4376 265.062 87.3576C265.051 87.2777 265.057 87.1965 265.077 87.1186C265.098 87.0407 265.134 86.9676 265.183 86.9037C265.232 86.8397 265.294 86.786 265.364 86.7456C265.434 86.7053 265.511 86.6792 265.591 86.6687C265.671 86.6582 265.752 86.6636 265.83 86.6846C265.908 86.7055 265.982 86.7416 266.046 86.7908L266.941 87.4761L269.057 84.7219C269.106 84.658 269.167 84.6044 269.237 84.5642C269.307 84.5239 269.384 84.4977 269.464 84.4872C269.544 84.4767 269.625 84.482 269.703 84.5028C269.781 84.5236 269.854 84.5595 269.918 84.6085L269.905 84.6263L269.918 84.6087C270.047 84.7078 270.132 84.8539 270.153 85.015C270.174 85.1761 270.131 85.3391 270.032 85.4681L267.543 88.7077C267.485 88.7823 267.411 88.8427 267.327 88.8842C267.242 88.9257 267.149 88.9471 267.054 88.9469Z"/><path fill="#FF3D71" d="M267.637 109.739C270.886 109.739 273.52 107.11 273.52 103.868C273.52 100.626 270.886 97.9971 267.637 97.9971C264.389 97.9971 261.755 100.626 261.755 103.868C261.755 107.11 264.389 109.739 267.637 109.739Z"/><path fill="#fff" d="M267.054 106.108C266.922 106.108 266.793 106.065 266.687 105.986L266.681 105.981L265.298 104.925C265.234 104.876 265.18 104.815 265.14 104.745C265.099 104.675 265.073 104.598 265.062 104.518C265.051 104.438 265.057 104.357 265.077 104.279C265.098 104.201 265.134 104.128 265.183 104.064C265.232 104 265.294 103.947 265.364 103.906C265.434 103.866 265.511 103.84 265.591 103.829C265.671 103.819 265.752 103.824 265.83 103.845C265.908 103.866 265.982 103.902 266.046 103.951L266.941 104.637L269.057 101.883C269.106 101.819 269.167 101.765 269.237 101.725C269.307 101.685 269.384 101.658 269.464 101.648C269.544 101.637 269.625 101.643 269.703 101.663C269.781 101.684 269.854 101.72 269.918 101.769L269.905 101.787L269.918 101.769C270.047 101.868 270.132 102.015 270.153 102.176C270.174 102.337 270.131 102.5 270.032 102.629L267.543 105.868C267.485 105.943 267.411 106.003 267.327 106.045C267.242 106.086 267.149 106.108 267.054 106.108Z"/><path fill="#FF3D71" d="M270.804 129.609C274.053 129.609 276.687 126.981 276.687 123.738C276.687 120.496 274.053 117.868 270.804 117.868C267.556 117.868 264.922 120.496 264.922 123.738C264.922 126.981 267.556 129.609 270.804 129.609Z"/><path fill="#fff" d="M270.221 125.978C270.089 125.978 269.96 125.935 269.854 125.856L269.848 125.851L268.465 124.795C268.401 124.746 268.347 124.685 268.307 124.615C268.266 124.545 268.24 124.468 268.229 124.388C268.218 124.308 268.224 124.227 268.244 124.149C268.265 124.071 268.301 123.998 268.35 123.934C268.399 123.87 268.461 123.817 268.531 123.776C268.601 123.736 268.678 123.71 268.758 123.699C268.838 123.689 268.919 123.694 268.997 123.715C269.075 123.736 269.149 123.772 269.213 123.822L270.108 124.507L272.224 121.753C272.273 121.689 272.334 121.635 272.404 121.595C272.474 121.555 272.551 121.529 272.631 121.518C272.711 121.507 272.792 121.513 272.87 121.534C272.948 121.554 273.021 121.59 273.085 121.639L273.072 121.657L273.085 121.64C273.214 121.739 273.299 121.885 273.32 122.046C273.341 122.207 273.298 122.37 273.199 122.499L270.71 125.738C270.652 125.813 270.578 125.873 270.494 125.915C270.409 125.956 270.316 125.978 270.221 125.978Z"/><path fill="#E6E6E6" d="M327.525 172.755C327.464 172.755 327.425 172.753 327.412 172.752L320.109 172.753V171.678H327.438C327.608 171.684 331.07 171.782 334.26 167.919C339.014 162.161 342.917 147.909 334.519 112.704C323.227 65.3676 332.645 23.548 337.218 7.76539C337.444 6.98456 337.484 6.16212 337.336 5.36307C337.188 4.56401 336.856 3.81024 336.366 3.16129C335.876 2.51234 335.242 1.986 334.513 1.62386C333.784 1.26173 332.981 1.07372 332.167 1.07468H223.106C222.277 1.07579 221.46 1.27201 220.721 1.64741C219.982 2.02282 219.342 2.56684 218.853 3.2353C216.916 5.89522 214.257 11.0051 212.593 20.2448L211.534 20.0548C213.233 10.6145 215.979 5.3542 217.982 2.60351C218.571 1.79804 219.342 1.14251 220.232 0.69015C221.123 0.237787 222.107 0.00133791 223.106 2.92484e-06H332.167C333.148 -0.000939414 334.116 0.225836 334.994 0.662414C335.872 1.09899 336.637 1.73341 337.227 2.51555C337.817 3.29768 338.217 4.2061 338.395 5.16904C338.573 6.13198 338.525 7.12306 338.253 8.06397C333.703 23.7648 324.333 65.3673 335.567 112.456C344.083 148.155 339.989 162.717 335.055 168.646C331.8 172.557 328.215 172.755 327.525 172.755Z"/><path fill="#CCC" d="M307.874 192.367C307.813 192.367 307.774 192.366 307.761 192.365L300.458 192.366V191.291H307.787C307.958 191.296 311.419 191.395 314.609 187.532C319.363 181.774 323.266 167.521 314.868 132.317C303.576 84.9804 312.994 43.1608 317.568 27.3782C317.793 26.5974 317.833 25.7749 317.685 24.9759C317.537 24.1768 317.205 23.423 316.715 22.7741C316.226 22.1251 315.591 21.5988 314.862 21.2367C314.133 20.8745 313.33 20.6865 312.516 20.6875H203.455C202.626 20.6886 201.809 20.8848 201.07 21.2602C200.331 21.6356 199.691 22.1796 199.202 22.8481C197.265 25.508 194.606 30.6179 192.943 39.8576L191.883 39.6676C193.583 30.2273 196.328 24.967 198.332 22.2163C198.92 21.4108 199.691 20.7553 200.581 20.3029C201.472 19.8506 202.456 19.6141 203.455 19.6128H312.516C313.497 19.6119 314.465 19.8386 315.343 20.2752C316.221 20.7118 316.986 21.3462 317.576 22.1283C318.166 22.9105 318.566 23.8189 318.744 24.7819C318.922 25.7448 318.874 26.7359 318.602 27.6768C314.052 43.3776 304.683 84.9801 315.916 132.069C324.432 167.768 320.338 182.329 315.404 188.259C312.15 192.169 308.564 192.367 307.874 192.367Z"/><path fill="#3F3D56" d="M296.265 151.683C285.03 104.595 294.401 62.9892 298.952 47.2916C299.224 46.3507 299.272 45.3598 299.093 44.397C298.915 43.4343 298.515 42.526 297.925 41.744C297.335 40.9619 296.571 40.3273 295.693 39.8904C294.815 39.4534 293.848 39.226 292.867 39.2261H183.804C182.805 39.2271 181.821 39.4631 180.931 39.9151C180.041 40.3671 179.27 41.0222 178.681 41.8273C174.279 47.8697 165.144 67.9072 175.347 123.35C180.803 153.011 180.722 173.234 178.939 186.556C177.939 194.057 176.397 199.368 174.998 202.949L174.849 203.328C174.555 204.053 174.401 204.827 174.397 205.609C174.386 206.492 174.564 207.367 174.917 208.176C175.27 208.986 175.791 209.712 176.446 210.305C176.873 210.705 177.356 211.039 177.881 211.299C178.316 211.521 178.776 211.689 179.252 211.8C179.736 211.918 180.233 211.977 180.731 211.976H288.111C288.125 211.976 288.161 211.981 288.224 211.981C288.912 211.981 292.5 211.782 295.754 207.871C300.685 201.942 304.78 187.382 296.265 151.683ZM294.957 207.144C291.767 211.01 288.306 210.911 288.139 210.906H180.731C179.871 210.906 179.025 210.695 178.265 210.293C177.505 209.891 176.856 209.309 176.374 208.598C175.95 207.984 175.665 207.285 175.539 206.549C175.413 205.814 175.449 205.06 175.645 204.34C175.697 204.131 175.763 203.925 175.844 203.726C177.442 199.629 178.625 195.384 179.378 191.054C181.93 177.167 182.405 155.739 176.406 123.156C166.279 68.1239 175.234 48.389 179.55 42.4595C180.04 41.792 180.68 41.2489 181.419 40.8739C182.158 40.4989 182.975 40.3026 183.804 40.3009H292.867C293.68 40.3003 294.483 40.4885 295.211 40.8506C295.94 41.2128 296.574 41.7389 297.063 42.3875C297.553 43.0361 297.885 43.7894 298.033 44.588C298.181 45.3866 298.141 46.2086 297.916 46.9891C293.342 62.7725 283.926 104.595 295.22 151.932C303.618 187.134 299.713 201.386 294.957 207.144Z"/><path fill="#CCC" d="M244.452 90.5007H188.262C187.12 90.5007 186.024 90.0478 185.217 89.2416C184.409 88.4355 183.955 87.3421 183.955 86.202C183.955 85.0619 184.409 83.9685 185.217 83.1624C186.024 82.3562 187.12 81.9033 188.262 81.9033H244.452C245.595 81.9033 246.69 82.3562 247.498 83.1624C248.306 83.9685 248.759 85.0619 248.759 86.202C248.759 87.3421 248.306 88.4355 247.498 89.2416C246.69 90.0478 245.595 90.5007 244.452 90.5007Z"/><path fill="#CCC" d="M244.452 109.016H188.262C187.12 109.016 186.024 108.563 185.217 107.757C184.409 106.951 183.955 105.858 183.955 104.718C183.955 103.578 184.409 102.484 185.217 101.678C186.024 100.872 187.12 100.419 188.262 100.419H244.452C245.595 100.419 246.69 100.872 247.498 101.678C248.306 102.484 248.759 103.578 248.759 104.718C248.759 105.858 248.306 106.951 247.498 107.757C246.69 108.563 245.595 109.016 244.452 109.016Z"/><path fill="#CCC" d="M248.977 127.984H192.787C191.645 127.984 190.549 127.531 189.741 126.725C188.934 125.918 188.48 124.825 188.48 123.685C188.48 122.545 188.934 121.451 189.741 120.645C190.549 119.839 191.645 119.386 192.787 119.386H248.977C250.12 119.386 251.215 119.839 252.023 120.645C252.831 121.451 253.284 122.545 253.284 123.685C253.284 124.825 252.831 125.918 252.023 126.725C251.215 127.531 250.12 127.984 248.977 127.984Z"/><path fill="#CCC" d="M252.144 147.854H195.954C194.812 147.854 193.716 147.401 192.908 146.595C192.101 145.788 191.647 144.695 191.647 143.555C191.647 142.415 192.101 141.322 192.908 140.515C193.716 139.709 194.812 139.256 195.954 139.256H252.144C253.287 139.256 254.382 139.709 255.19 140.515C255.998 141.322 256.451 142.415 256.451 143.555C256.451 144.695 255.998 145.788 255.19 146.595C254.382 147.401 253.287 147.854 252.144 147.854Z"/><path fill="#FF3D71" d="M252.168 57.1232H211.79C211.224 57.1238 210.664 57.0131 210.141 56.7973C209.618 56.5815 209.142 56.265 208.742 55.8657C208.342 55.4665 208.024 54.9925 207.807 54.4706C207.591 53.9488 207.479 53.3894 207.479 52.8246C207.479 52.2597 207.591 51.7003 207.807 51.1785C208.024 50.6567 208.342 50.1826 208.742 49.7834C209.142 49.3842 209.618 49.0676 210.141 48.8518C210.664 48.6361 211.224 48.5253 211.79 48.5259H252.168C253.311 48.5259 254.406 48.9788 255.214 49.7849C256.021 50.5911 256.475 51.6845 256.475 52.8246C256.475 53.9646 256.021 55.058 255.214 55.8642C254.406 56.6704 253.311 57.1232 252.168 57.1232Z"/><path fill="#CCC" d="M274.424 149.426C277.673 149.426 280.306 146.797 280.306 143.555C280.306 140.313 277.673 137.684 274.424 137.684C271.175 137.684 268.542 140.313 268.542 143.555C268.542 146.797 271.175 149.426 274.424 149.426Z"/><path fill="#CCC" d="M254.859 167.273H198.669C197.526 167.273 196.431 166.82 195.623 166.014C194.816 165.207 194.362 164.114 194.362 162.974C194.362 161.834 194.816 160.74 195.623 159.934C196.431 159.128 197.526 158.675 198.669 158.675H254.859C256.001 158.675 257.097 159.128 257.905 159.934C258.712 160.74 259.166 161.834 259.166 162.974C259.166 164.114 258.712 165.207 257.905 166.014C257.097 166.82 256.001 167.273 254.859 167.273Z"/><path fill="#CCC" d="M277.139 168.845C280.388 168.845 283.021 166.216 283.021 162.974C283.021 159.731 280.388 157.103 277.139 157.103C273.89 157.103 271.257 159.731 271.257 162.974C271.257 166.216 273.89 168.845 277.139 168.845Z"/></g><defs><clipPath id="clip0_1_488"><rect width="384" height="212" fill="#fff"/></clipPath></defs></svg>